<svg width="60" height="60" viewBox="0 0 60 60" fill="none" xmlns="http://www.w3.org/2000/svg">
<g id="icon">
<path id="Vector" d="M45 25H41.85C40.9147 21.3775 38.982 18.09 36.2716 15.511C33.5612 12.932 30.1818 11.165 26.5173 10.4107C22.8528 9.6564 19.0502 9.9451 15.5416 11.244C12.033 12.5429 8.9591 14.7998 6.66913 17.7585C4.37916 20.7171 2.96498 24.2587 2.58727 27.9809C2.20956 31.7031 2.88348 35.4566 4.53244 38.8149C6.1814 42.1732 8.73929 45.0017 11.9155 46.9789C15.0916 48.9561 18.7587 50.0028 22.5 50H45C48.3152 50 51.4946 48.683 53.8388 46.3388C56.183 43.9946 57.5 40.8152 57.5 37.5C57.5 34.1848 56.183 31.0054 53.8388 28.6612C51.4946 26.317 48.3152 25 45 25Z" stroke="white" stroke-width="2" stroke-linecap="round" stroke-linejoin="round"/>
</g>
</svg>
