<svg width="60" height="60" viewBox="0 0 60 60" fill="none" xmlns="http://www.w3.org/2000/svg">
<g id="icon">
<path id="Vector" d="M20 47.5V52.5" stroke="white" stroke-width="2" stroke-linecap="round" stroke-linejoin="round"/>
<path id="Vector_2" d="M20 32.5V37.5" stroke="white" stroke-width="2" stroke-linecap="round" stroke-linejoin="round"/>
<path id="Vector_3" d="M40 47.5V52.5" stroke="white" stroke-width="2" stroke-linecap="round" stroke-linejoin="round"/>
<path id="Vector_4" d="M40 32.5V37.5" stroke="white" stroke-width="2" stroke-linecap="round" stroke-linejoin="round"/>
<path id="Vector_5" d="M30 52.5V57.5" stroke="white" stroke-width="2" stroke-linecap="round" stroke-linejoin="round"/>
<path id="Vector_6" d="M30 37.5V42.5" stroke="white" stroke-width="2" stroke-linecap="round" stroke-linejoin="round"/>
<path id="Vector_7" d="M50 41.45C52.6281 40.299 54.7803 38.2789 56.0952 35.7289C57.4101 33.1788 57.8078 30.254 57.2215 27.4455C56.6351 24.6369 55.1005 22.1155 52.8751 20.3046C50.6497 18.4937 47.8691 17.5034 45 17.5H41.85C41.0575 14.4313 39.5471 11.5949 37.4433 9.22452C35.3394 6.85415 32.7023 5.01771 29.7494 3.86657C26.7965 2.71543 23.6123 2.28256 20.4592 2.60362C17.3061 2.92469 14.2745 3.99051 11.6142 5.71322C8.95395 7.43594 6.74116 9.76622 5.15826 12.512C3.57536 15.2578 2.66768 18.3404 2.51003 21.5059C2.35238 24.6713 2.94927 27.8289 4.25151 30.7184C5.55375 33.6079 7.52405 36.1465 10 38.125" stroke="white" stroke-width="2" stroke-linecap="round" stroke-linejoin="round"/>
</g>
</svg>
