<svg width="60" height="60" viewBox="0 0 60 60" fill="none" xmlns="http://www.w3.org/2000/svg">
<g id="icon">
<path id="Vector" d="M50 43.95C52.6281 42.799 54.7803 40.7789 56.0952 38.2289C57.4101 35.6788 57.8078 32.754 57.2215 29.9455C56.6351 27.1369 55.1005 24.6155 52.8751 22.8046C50.6497 20.9937 47.8691 20.0034 45 20H41.85C41.0575 16.9313 39.5471 14.0949 37.4433 11.7245C35.3394 9.35414 32.7023 7.51771 29.7494 6.36657C26.7965 5.21543 23.6123 4.78256 20.4592 5.10362C17.3061 5.42469 14.2745 6.49051 11.6142 8.21322C8.95395 9.93594 6.74116 12.2662 5.15826 15.012C3.57536 17.7578 2.66768 20.8404 2.51003 24.0059C2.35238 27.1713 2.94927 30.3289 4.25151 33.2184C5.55375 36.1079 7.52405 38.6465 10 40.625" stroke="white" stroke-width="2" stroke-linecap="round" stroke-linejoin="round"/>
<path id="Vector_2" d="M20 40H20.025" stroke="white" stroke-width="2" stroke-linecap="round" stroke-linejoin="round"/>
<path id="Vector_3" d="M20 50H20.025" stroke="white" stroke-width="2" stroke-linecap="round" stroke-linejoin="round"/>
<path id="Vector_4" d="M30 45H30.025" stroke="white" stroke-width="2" stroke-linecap="round" stroke-linejoin="round"/>
<path id="Vector_5" d="M30 55H30.025" stroke="white" stroke-width="2" stroke-linecap="round" stroke-linejoin="round"/>
<path id="Vector_6" d="M40 40H40.025" stroke="white" stroke-width="2" stroke-linecap="round" stroke-linejoin="round"/>
<path id="Vector_7" d="M40 50H40.025" stroke="white" stroke-width="2" stroke-linecap="round" stroke-linejoin="round"/>
</g>
</svg>
