<svg width="60" height="60" viewBox="0 0 60 60" fill="none" xmlns="http://www.w3.org/2000/svg">
<g id="icon">
<path id="Vector" d="M47.5 42.25C50.5379 41.6332 53.2382 39.9095 55.0767 37.4137C56.9152 34.9179 57.7608 31.828 57.4493 28.7438C57.1377 25.6596 55.6913 22.8012 53.3908 20.7235C51.0903 18.6457 48.0999 17.4969 45 17.5H41.85C41.0217 14.2933 39.4101 11.3425 37.1597 8.91248C34.9094 6.48247 32.0908 4.64934 28.957 3.57767C25.8233 2.50601 22.4724 2.22935 19.2053 2.77254C15.9382 3.31573 12.8572 4.66176 10.2388 6.68979C7.62034 8.71782 5.54655 11.3644 4.20357 14.3918C2.86059 17.4192 2.29046 20.7328 2.54437 24.035C2.79828 27.3372 3.86827 30.5246 5.65829 33.3112C7.44831 36.0977 9.90232 38.3961 12.8 40" stroke="white" stroke-width="2" stroke-linecap="round" stroke-linejoin="round"/>
<path id="Vector_2" d="M32.5 27.5L22.5 42.5H37.5L27.5 57.5" stroke="white" stroke-width="2" stroke-linecap="round" stroke-linejoin="round"/>
</g>
</svg>
