<svg width="60" height="60" viewBox="0 0 60 60" fill="none" xmlns="http://www.w3.org/2000/svg">
<g id="icon">
<path id="Vector" d="M23.975 11.475C24.5558 10.8907 25.2719 10.4591 26.0597 10.2183C26.8475 9.97755 27.6826 9.93517 28.4907 10.0949C29.2988 10.2547 30.055 10.6117 30.6919 11.1341C31.3288 11.6565 31.8268 12.3282 32.1416 13.0894C32.4563 13.8507 32.5782 14.6779 32.4962 15.4976C32.4142 16.3173 32.1309 17.104 31.6716 17.7879C31.2123 18.4717 30.5912 19.0314 29.8634 19.4174C29.1356 19.8033 28.3238 20.0034 27.5 20H5M31.475 48.525C32.0558 49.1092 32.7719 49.5408 33.5597 49.7816C34.3475 50.0224 35.1826 50.0647 35.9907 49.905C36.7988 49.7452 37.555 49.3883 38.1919 48.8658C38.8288 48.3434 39.3268 47.6717 39.6416 46.9105C39.9563 46.1492 40.0782 45.322 39.9962 44.5023C39.9142 43.6826 39.6309 42.8959 39.1716 42.2121C38.7123 41.5282 38.0912 40.9685 37.3634 40.5825C36.6356 40.1966 35.8238 39.9965 35 40H5M44.325 19.325C45.0521 18.5997 45.9468 18.0647 46.9298 17.7675C47.9129 17.4702 48.954 17.4198 49.9612 17.6207C50.9684 17.8215 51.9105 18.2675 52.7044 18.9191C53.4982 19.5708 54.1192 20.408 54.5124 21.3567C54.9057 22.3054 55.0591 23.3364 54.9591 24.3586C54.8591 25.3807 54.5088 26.3624 53.9391 27.2169C53.3694 28.0715 52.5979 28.7724 51.6928 29.2578C50.7877 29.7432 49.777 29.9981 48.75 30H5" stroke="white" stroke-width="2" stroke-linecap="round" stroke-linejoin="round"/>
</g>
</svg>
